<svg xmlns="http://www.w3.org/2000/svg" xmlns:xlink="http://www.w3.org/1999/xlink" width="64" zoomAndPan="magnify" viewBox="0 0 48 48" height="64" preserveAspectRatio="xMidYMid meet" version="1.0"><defs><clipPath id="357f8257e1"><path d="M 19 38 L 29 38 L 29 47.019531 L 19 47.019531 Z M 19 38 " clip-rule="nonzero"/></clipPath><clipPath id="819b923b15"><path d="M 0.488281 19 L 10 19 L 10 28 L 0.488281 28 Z M 0.488281 19 " clip-rule="nonzero"/></clipPath><clipPath id="026ca5a034"><path d="M 38 19 L 47.507812 19 L 47.507812 28 L 38 28 Z M 38 19 " clip-rule="nonzero"/></clipPath><clipPath id="ce5e7805b2"><path d="M 0.488281 0 L 47.507812 0 L 47.507812 47.019531 L 0.488281 47.019531 Z M 0.488281 0 " clip-rule="nonzero"/></clipPath></defs><path fill="#ff3131" d="M 28.472656 4.472656 C 28.472656 4.769531 28.445312 5.058594 28.386719 5.347656 C 28.332031 5.636719 28.246094 5.914062 28.132812 6.1875 C 28.019531 6.457031 27.882812 6.714844 27.71875 6.960938 C 27.558594 7.203125 27.371094 7.429688 27.164062 7.636719 C 26.957031 7.847656 26.730469 8.03125 26.484375 8.195312 C 26.242188 8.359375 25.984375 8.496094 25.710938 8.609375 C 25.441406 8.71875 25.160156 8.804688 24.871094 8.863281 C 24.585938 8.917969 24.292969 8.949219 24 8.949219 C 23.707031 8.949219 23.414062 8.917969 23.128906 8.863281 C 22.839844 8.804688 22.558594 8.71875 22.289062 8.609375 C 22.015625 8.496094 21.757812 8.359375 21.515625 8.195312 C 21.269531 8.03125 21.042969 7.847656 20.835938 7.636719 C 20.628906 7.429688 20.441406 7.203125 20.28125 6.960938 C 20.117188 6.714844 19.980469 6.457031 19.867188 6.1875 C 19.753906 5.914062 19.667969 5.636719 19.613281 5.347656 C 19.554688 5.058594 19.527344 4.769531 19.527344 4.472656 C 19.527344 4.179688 19.554688 3.890625 19.613281 3.601562 C 19.667969 3.3125 19.753906 3.035156 19.867188 2.761719 C 19.980469 2.492188 20.117188 2.234375 20.28125 1.988281 C 20.441406 1.746094 20.628906 1.519531 20.835938 1.308594 C 21.042969 1.101562 21.269531 0.917969 21.515625 0.753906 C 21.757812 0.589844 22.015625 0.453125 22.289062 0.339844 C 22.558594 0.226562 22.839844 0.144531 23.128906 0.0859375 C 23.414062 0.0273438 23.707031 0 24 0 C 24.292969 0 24.585938 0.0273438 24.871094 0.0859375 C 25.160156 0.144531 25.441406 0.226562 25.710938 0.339844 C 25.984375 0.453125 26.242188 0.589844 26.484375 0.753906 C 26.730469 0.917969 26.957031 1.101562 27.164062 1.308594 C 27.371094 1.519531 27.558594 1.746094 27.71875 1.988281 C 27.882812 2.234375 28.019531 2.492188 28.132812 2.761719 C 28.246094 3.035156 28.332031 3.3125 28.386719 3.601562 C 28.445312 3.890625 28.472656 4.179688 28.472656 4.472656 Z M 28.472656 4.472656 " fill-opacity="1" fill-rule="nonzero"/><g clip-path="url(#357f8257e1)"><path fill="#ff3131" d="M 28.472656 42.546875 C 28.472656 42.839844 28.445312 43.132812 28.386719 43.417969 C 28.332031 43.707031 28.246094 43.988281 28.132812 44.257812 C 28.019531 44.53125 27.882812 44.789062 27.71875 45.03125 C 27.558594 45.277344 27.371094 45.503906 27.164062 45.710938 C 26.957031 45.917969 26.730469 46.101562 26.484375 46.265625 C 26.242188 46.429688 25.984375 46.566406 25.710938 46.679688 C 25.441406 46.792969 25.160156 46.878906 24.871094 46.933594 C 24.585938 46.992188 24.292969 47.019531 24 47.019531 C 23.707031 47.019531 23.414062 46.992188 23.128906 46.933594 C 22.839844 46.878906 22.558594 46.792969 22.289062 46.679688 C 22.015625 46.566406 21.757812 46.429688 21.515625 46.265625 C 21.269531 46.101562 21.042969 45.917969 20.835938 45.710938 C 20.628906 45.503906 20.441406 45.277344 20.28125 45.03125 C 20.117188 44.789062 19.980469 44.53125 19.867188 44.257812 C 19.753906 43.988281 19.667969 43.707031 19.613281 43.417969 C 19.554688 43.132812 19.527344 42.839844 19.527344 42.546875 C 19.527344 42.253906 19.554688 41.960938 19.613281 41.671875 C 19.667969 41.386719 19.753906 41.105469 19.867188 40.832031 C 19.980469 40.5625 20.117188 40.304688 20.28125 40.058594 C 20.441406 39.816406 20.628906 39.589844 20.835938 39.382812 C 21.042969 39.175781 21.269531 38.988281 21.515625 38.824219 C 21.757812 38.664062 22.015625 38.523438 22.289062 38.414062 C 22.558594 38.300781 22.839844 38.214844 23.128906 38.15625 C 23.414062 38.101562 23.707031 38.070312 24 38.070312 C 24.292969 38.070312 24.585938 38.101562 24.871094 38.15625 C 25.160156 38.214844 25.441406 38.300781 25.710938 38.414062 C 25.984375 38.523438 26.242188 38.664062 26.484375 38.824219 C 26.730469 38.988281 26.957031 39.175781 27.164062 39.382812 C 27.371094 39.589844 27.558594 39.816406 27.71875 40.058594 C 27.882812 40.304688 28.019531 40.5625 28.132812 40.832031 C 28.246094 41.105469 28.332031 41.386719 28.386719 41.671875 C 28.445312 41.960938 28.472656 42.253906 28.472656 42.546875 Z M 28.472656 42.546875 " fill-opacity="1" fill-rule="nonzero"/></g><g clip-path="url(#819b923b15)"><path fill="#ff3131" d="M 9.4375 23.511719 C 9.4375 23.804688 9.410156 24.09375 9.351562 24.382812 C 9.296875 24.671875 9.210938 24.949219 9.097656 25.222656 C 8.984375 25.492188 8.847656 25.75 8.683594 25.996094 C 8.519531 26.238281 8.335938 26.464844 8.128906 26.675781 C 7.921875 26.882812 7.695312 27.066406 7.449219 27.230469 C 7.207031 27.394531 6.949219 27.53125 6.675781 27.644531 C 6.40625 27.757812 6.125 27.839844 5.835938 27.898438 C 5.546875 27.957031 5.257812 27.984375 4.964844 27.984375 C 4.671875 27.984375 4.378906 27.957031 4.089844 27.898438 C 3.804688 27.839844 3.523438 27.757812 3.25 27.644531 C 2.980469 27.53125 2.722656 27.394531 2.476562 27.230469 C 2.234375 27.066406 2.007812 26.882812 1.800781 26.675781 C 1.59375 26.464844 1.40625 26.238281 1.242188 25.996094 C 1.082031 25.75 0.941406 25.492188 0.832031 25.222656 C 0.71875 24.949219 0.632812 24.671875 0.574219 24.382812 C 0.519531 24.09375 0.488281 23.804688 0.488281 23.511719 C 0.488281 23.214844 0.519531 22.925781 0.574219 22.636719 C 0.632812 22.347656 0.71875 22.070312 0.832031 21.796875 C 0.941406 21.527344 1.082031 21.269531 1.242188 21.023438 C 1.40625 20.78125 1.59375 20.554688 1.800781 20.347656 C 2.007812 20.140625 2.234375 19.953125 2.476562 19.789062 C 2.722656 19.625 2.980469 19.488281 3.25 19.375 C 3.523438 19.265625 3.804688 19.179688 4.089844 19.121094 C 4.378906 19.066406 4.671875 19.035156 4.964844 19.035156 C 5.257812 19.035156 5.546875 19.066406 5.835938 19.121094 C 6.125 19.179688 6.40625 19.265625 6.675781 19.375 C 6.949219 19.488281 7.207031 19.625 7.449219 19.789062 C 7.695312 19.953125 7.921875 20.140625 8.128906 20.347656 C 8.335938 20.554688 8.519531 20.78125 8.683594 21.023438 C 8.847656 21.269531 8.984375 21.527344 9.097656 21.796875 C 9.210938 22.070312 9.296875 22.347656 9.351562 22.636719 C 9.410156 22.925781 9.4375 23.214844 9.4375 23.511719 Z M 9.4375 23.511719 " fill-opacity="1" fill-rule="nonzero"/></g><g clip-path="url(#026ca5a034)"><path fill="#ff3131" d="M 47.511719 23.511719 C 47.511719 23.804688 47.480469 24.09375 47.425781 24.382812 C 47.367188 24.671875 47.28125 24.949219 47.167969 25.222656 C 47.058594 25.492188 46.917969 25.75 46.757812 25.996094 C 46.59375 26.238281 46.40625 26.464844 46.199219 26.675781 C 45.992188 26.882812 45.765625 27.066406 45.523438 27.230469 C 45.277344 27.394531 45.019531 27.53125 44.75 27.644531 C 44.476562 27.757812 44.195312 27.839844 43.910156 27.898438 C 43.621094 27.957031 43.328125 27.984375 43.035156 27.984375 C 42.742188 27.984375 42.453125 27.957031 42.164062 27.898438 C 41.875 27.839844 41.59375 27.757812 41.324219 27.644531 C 41.050781 27.53125 40.792969 27.394531 40.550781 27.230469 C 40.304688 27.066406 40.078125 26.882812 39.871094 26.675781 C 39.664062 26.464844 39.480469 26.238281 39.316406 25.996094 C 39.152344 25.75 39.015625 25.492188 38.902344 25.222656 C 38.789062 24.949219 38.703125 24.671875 38.648438 24.382812 C 38.589844 24.09375 38.5625 23.804688 38.5625 23.511719 C 38.5625 23.214844 38.589844 22.925781 38.648438 22.636719 C 38.703125 22.347656 38.789062 22.070312 38.902344 21.796875 C 39.015625 21.527344 39.152344 21.269531 39.316406 21.023438 C 39.480469 20.78125 39.664062 20.554688 39.871094 20.347656 C 40.078125 20.140625 40.304688 19.953125 40.550781 19.789062 C 40.792969 19.625 41.050781 19.488281 41.324219 19.375 C 41.59375 19.265625 41.875 19.179688 42.164062 19.121094 C 42.453125 19.066406 42.742188 19.035156 43.035156 19.035156 C 43.328125 19.035156 43.621094 19.066406 43.910156 19.121094 C 44.195312 19.179688 44.476562 19.265625 44.75 19.375 C 45.019531 19.488281 45.277344 19.625 45.523438 19.789062 C 45.765625 19.953125 45.992188 20.140625 46.199219 20.347656 C 46.40625 20.554688 46.59375 20.78125 46.757812 21.023438 C 46.917969 21.269531 47.058594 21.527344 47.167969 21.796875 C 47.28125 22.070312 47.367188 22.347656 47.425781 22.636719 C 47.480469 22.925781 47.511719 23.214844 47.511719 23.511719 Z M 47.511719 23.511719 " fill-opacity="1" fill-rule="nonzero"/></g><g clip-path="url(#ce5e7805b2)"><path fill="#5e17eb" d="M 36.96875 35.6875 L 30.855469 29.574219 C 29.261719 27.980469 28.457031 25.796875 28.46875 23.539062 C 28.46875 23.519531 28.46875 23.5 28.46875 23.480469 C 28.457031 21.222656 29.261719 19.039062 30.855469 17.445312 L 36.980469 11.320312 C 38.578125 9.722656 40.765625 8.9375 43.019531 8.945312 C 44.195312 8.953125 45.375 8.496094 46.261719 7.574219 C 47.875 5.898438 47.914062 3.1875 46.351562 1.46875 C 44.617188 -0.433594 41.671875 -0.488281 39.871094 1.308594 C 38.984375 2.195312 38.550781 3.359375 38.5625 4.523438 C 38.589844 6.773438 37.769531 8.949219 36.175781 10.542969 L 30.066406 16.652344 C 28.46875 18.25 26.285156 19.054688 24.027344 19.039062 C 24.007812 19.039062 23.992188 19.039062 23.972656 19.039062 C 21.714844 19.054688 19.53125 18.25 17.933594 16.652344 L 11.808594 10.527344 C 10.214844 8.933594 9.425781 6.746094 9.4375 4.488281 C 9.441406 3.3125 8.984375 2.132812 8.066406 1.25 C 6.390625 -0.363281 3.679688 -0.40625 1.957031 1.160156 C 0.0546875 2.890625 0 5.839844 1.800781 7.636719 C 2.6875 8.523438 3.851562 8.960938 5.011719 8.945312 C 7.261719 8.921875 9.441406 9.742188 11.03125 11.332031 L 17.144531 17.445312 C 18.738281 19.039062 19.542969 21.222656 19.53125 23.480469 C 19.527344 23.5 19.527344 23.519531 19.53125 23.539062 C 19.542969 25.796875 18.738281 27.980469 17.144531 29.574219 L 11.015625 35.703125 C 9.421875 37.296875 7.234375 38.085938 4.980469 38.074219 C 3.804688 38.066406 2.625 38.523438 1.738281 39.445312 C 0.125 41.121094 0.0859375 43.832031 1.648438 45.550781 C 3.382812 47.457031 6.328125 47.507812 8.128906 45.710938 C 9.015625 44.824219 9.449219 43.660156 9.4375 42.5 C 9.410156 40.246094 10.230469 38.070312 11.824219 36.476562 L 17.933594 30.367188 C 19.53125 28.769531 21.714844 27.964844 23.972656 27.980469 C 23.992188 27.980469 24.007812 27.980469 24.027344 27.980469 C 26.285156 27.964844 28.46875 28.769531 30.066406 30.367188 L 36.191406 36.492188 C 37.785156 38.089844 38.574219 40.273438 38.5625 42.53125 C 38.558594 43.707031 39.015625 44.886719 39.933594 45.769531 C 41.609375 47.382812 44.320312 47.425781 46.042969 45.859375 C 47.945312 44.128906 47.996094 41.179688 46.199219 39.382812 C 45.3125 38.496094 44.148438 38.058594 42.988281 38.074219 C 40.738281 38.101562 38.558594 37.28125 36.96875 35.6875 Z M 36.96875 35.6875 " fill-opacity="1" fill-rule="nonzero"/></g></svg>